<?xml version="1.0" encoding="UTF-8"?>
<svg id="Calque_1" data-name="Calque 1" xmlns="http://www.w3.org/2000/svg" viewBox="0 0 292.6 366.46">
  <defs>
    <style>
      .cls-1 {
        fill: #e0e0e0;
      }

      .cls-2 {
        opacity: .2;
      }

      .cls-2, .cls-3, .cls-4, .cls-5, .cls-6, .cls-7 {
        isolation: isolate;
      }

      .cls-8, .cls-3, .cls-4 {
        fill: #f2ad0d;
      }

      .cls-9 {
        fill: #ed847e;
      }

      .cls-10 {
        fill: #263238;
      }

      .cls-11, .cls-5, .cls-6, .cls-7 {
        fill: #fff;
      }

      .cls-12 {
        fill: #ffc3bd;
      }

      .cls-13 {
        opacity: .6;
      }

      .cls-3, .cls-7 {
        opacity: .5;
      }

      .cls-4 {
        opacity: .4;
      }

      .cls-5 {
        opacity: .8;
      }

      .cls-6 {
        opacity: .1;
      }
    </style>
  </defs>
  <g id="freepik--Character--inject-269">
    <path class="cls-10" d="M12.52,77.55c-5.92,1.31-12.8,9.61-6,18.08S1.93,100.4.16,115.22s11.74,12.33,7.5,22.05,25.19,25.12,43.55,13.45,20.08-36.8,14.34-45.68-14.12-9.44-10.32-18.95-.68-19.4-12.53-19.49c-8.94-.07-3.58-6.32-15.88-6.27-10.26.05-19.33,7.25-14.3,17.22Z"/>
    <path class="cls-11" d="M45.43,89.94c-1.61,0-2.92,1.31-2.92,2.92s1.31,2.92,2.92,2.92,2.92-1.31,2.92-2.92h0c0-1.61-1.29-2.91-2.9-2.92,0,0-.01,0-.02,0ZM45.43,95.09c-1.24,0-2.24-1-2.24-2.24,0-1.24,1-2.24,2.24-2.24,1.24,0,2.24,1,2.24,2.24,0,0,0,0,0,0,0,1.23-1,2.23-2.23,2.23,0,0,0,0-.01,0Z"/>
    <path class="cls-10" d="M70.05,118.39h0c-.13-.02-.22-.14-.2-.27,0,0,0-.01,0-.02.9-4.66-2.73-9.17-6.57-14-4.49-5.57-9.57-11.89-7.78-19.42,1.53-6.42.85-11.78-1.92-15.1-2.26-2.71-5.79-4-10.48-3.72-4.3.22-5.57-1-6.92-2.18s-3.14-2.85-9.31-2.81h0c-.13,0-.24-.11-.25-.24,0-.14.11-.25.25-.26h.21c6.22,0,7.93,1.56,9.44,2.94,1.32,1.21,2.47,2.26,6.56,2.05,4.85-.25,8.52,1.06,10.89,3.9,2.87,3.45,3.58,9,2,15.54-1.73,7.29,3.05,13.24,7.68,19,3.91,4.87,7.61,9.47,6.67,14.35,0,.14-.12.25-.26.24,0,0,0,0-.01,0Z"/>
    <path class="cls-12" d="M93.56,99.28l-1.34,2.62c-.51.98-.51,2.16,0,3.14l2.37,4.6c.95,1.84,2.73,3.11,4.78,3.4l1.26.18c2.54-4.19,2.19-10.59,2.19-10.59l.1-1.83c.14-1.57-1.02-2.95-2.59-3.09-.01,0-.03,0-.04,0l-3.63-.25c-1.3-.06-2.51.66-3.1,1.82Z"/>
    <path class="cls-8" d="M63.79,116.79s.06.11.11.18l.21.31.48.64c.34.44.71.87,1.09,1.3.76.86,1.57,1.7,2.41,2.51,1.7,1.61,3.55,3.06,5.51,4.33,3.85,2.56,8.2,4.26,12.76,5l.85.12.43.06s-.07,0-.11,0c-.22.02-.42.09-.6.22-.19.18.27-.08.71-.74,1.12-1.82,1.96-3.81,2.47-5.89.65-2.42,1.14-4.88,1.46-7.37.19-1.26.3-2.55.41-3.83s.19-2.62.19-3.77l11.52.55c-.15,1.57-.3,2.92-.46,4.37s-.39,2.85-.59,4.27c-.44,2.86-.95,5.72-1.7,8.66-.37,1.51-.82,3.01-1.35,4.47-.58,1.65-1.33,3.24-2.22,4.75-1.2,2.08-2.92,3.8-5,5-1.39.75-2.94,1.18-4.52,1.25h-1.72l-1.18-.08c-3.15-.29-6.26-.89-9.29-1.79-3-.92-5.92-2.09-8.72-3.5-2.77-1.42-5.43-3.05-7.95-4.88-1.27-.91-2.5-1.88-3.71-2.9-.6-.51-1.19-1.05-1.79-1.6l-.9-.85-.47-.47c-.17-.18-.28-.29-.55-.59l12.22-9.73Z"/>
    <path class="cls-7" d="M63.79,116.79s.06.11.11.18l.21.31.48.64c.34.44.71.87,1.09,1.3.76.86,1.57,1.7,2.41,2.51,1.7,1.61,3.55,3.06,5.51,4.33,3.85,2.56,8.2,4.26,12.76,5l.85.12.43.06s-.07,0-.11,0c-.22.02-.42.09-.6.22-.19.18.27-.08.71-.74,1.12-1.82,1.96-3.81,2.47-5.89.65-2.42,1.14-4.88,1.46-7.37.19-1.26.3-2.55.41-3.83s.19-2.62.19-3.77l11.52.55c-.15,1.57-.3,2.92-.46,4.37s-.39,2.85-.59,4.27c-.44,2.86-.95,5.72-1.7,8.66-.37,1.51-.82,3.01-1.35,4.47-.58,1.65-1.33,3.24-2.22,4.75-1.2,2.08-2.92,3.8-5,5-1.39.75-2.94,1.18-4.52,1.25h-1.72l-1.18-.08c-3.15-.29-6.26-.89-9.29-1.79-3-.92-5.92-2.09-8.72-3.5-2.77-1.42-5.43-3.05-7.95-4.88-1.27-.91-2.5-1.88-3.71-2.9-.6-.51-1.19-1.05-1.79-1.6l-.9-.85-.47-.47c-.17-.18-.28-.29-.55-.59l12.22-9.73Z"/>
    <path class="cls-12" d="M39.79,358.48c-1.46-3.26-.45-17-.25-19.23-2.53-1.33-11.23.3-11.23.3,0,0,2.43,14.43,1,18.93,3.33,1.86,10.48,0,10.48,0Z"/>
    <path class="cls-12" d="M147.14,345.32c-2.74-2.29-8.5-14.82-9.31-16.93-2.86-.07-9.31,5-9.31,5,0,0,8.52,11.89,9.19,16.58,3.83.16,9.43-4.65,9.43-4.65Z"/>
    <path class="cls-8" d="M48.69,366.45c-7.31,0-8.56-.11-12.67-.25-3.52-.13-4.36.31-7.19.25-2.36-.05-2.27-2.31-1.55-4.92.26-.92.62-2,1-3.3.29-1.01,1.22-1.71,2.27-1.71h8c.73.01,1.43.35,1.88.93,1.94,2.41,6.13,4.17,9.79,4.66,3.96.53,1.39,4.34-1.53,4.34Z"/>
    <path class="cls-8" d="M161.58,350.91c-7.87,3.56-12,1.75-15.95,2.65-3.39.76-3.28,1.4-6.65,2.37-2.24.63-3.39-1.76-3.19-3.86.16-1.53.24-3.06.23-4.6-.02-.6.33-1.16.88-1.41l7.82-3.55c.51-.23,1.12-.16,1.56.19,3.12,2.5,10,5.63,14.77,4,3.72-1.23,3.15,3.02.53,4.21Z"/>
    <path class="cls-10" d="M74.78,172.56s18.47,42.41,28.6,73.66c12.41,28.28,37.27,87.61,37.27,87.61.49,1.51-7.37,4.28-9.07,4,0,0-32.82-39.36-46.18-84.07-34.75-43.6-45-78.6-45-78.6l34.38-2.6Z"/>
    <path class="cls-2" d="M59.96,195.78c5.1,5.59,8.69,25,10.52,37.67-6.27-9.2-12-18.75-17.17-28.61.51-4.74,2.59-8.23,6.65-9.06Z"/>
    <path class="cls-10" d="M64.49,173.35s1.31,58.91-3.81,87.93c-5.38,30.47-22,67.23-20.85,87.23-1.72,1-7.74,1.06-11.11,0,0,0-5.76-59.39,11.55-88.38-3.75-29-13.73-66.61-4.87-84.57l29.09-2.21Z"/>
    <path class="cls-10" d="M40.67,344.35c.03,1.37.15,2.74.38,4.1.09.45-.2.9-.66.99-.02,0-.04,0-.05,0-4.07.65-10-.29-11.82-.62-.36-.07-.63-.35-.69-.71l-.61-3.84c-.08-.47.24-.91.71-.99.05,0,.1-.01.15-.01l11.75.22c.46.01.83.39.84.85Z"/>
    <path class="cls-6" d="M40.67,344.35c.03,1.37.15,2.74.38,4.1.09.45-.2.9-.66.99-.02,0-.04,0-.05,0-4.07.65-10-.29-11.82-.62-.36-.07-.63-.35-.69-.71l-.61-3.84c-.08-.47.24-.91.71-.99.05,0,.1-.01.15-.01l11.75.22c.46.01.83.39.84.85Z"/>
    <path class="cls-10" d="M139.8,329.5c.5,1,1.41,2.63,2.13,3.86.23.4.1.92-.3,1.16-3.22,1.74-6.59,3.17-10.07,4.29-.36.14-.77.02-1-.29l-2.38-3.15c-.29-.38-.21-.92.16-1.21.04-.03.09-.06.14-.08l10.14-4.94c.4-.23.92-.1,1.15.3.01.02.02.04.03.06Z"/>
    <path class="cls-6" d="M139.8,329.5c.5,1,1.41,2.63,2.13,3.86.23.4.1.92-.3,1.16-3.22,1.74-6.59,3.17-10.07,4.29-.36.14-.77.02-1-.29l-2.38-3.15c-.29-.38-.21-.92.16-1.21.04-.03.09-.06.14-.08l10.14-4.94c.4-.23.92-.1,1.15.3.01.02.02.04.03.06Z"/>
    <path class="cls-8" d="M66.92,122.64c1,3.76,2.56,7.89,4.46,17,1.75,7.65,3,21.1,3.4,32.94-5.14,4.58-22.23,3.8-39.38,3-.05-11.15-4.63-21.44-17.08-44.27-2.59-4.38-1.14-10.03,3.24-12.62.56-.33,1.15-.6,1.76-.8,1.49-.5,3.08-1,4.73-1.46,5.73-1.74,11.57-3.08,17.48-4,1.94-.26,4-.46,5.9-.63,7.09-.56,13.58,3.99,15.49,10.84Z"/>
    <path class="cls-7" d="M66.92,122.64c1,3.76,2.56,7.89,4.46,17,1.75,7.65,3,21.1,3.4,32.94-5.14,4.58-22.23,3.8-39.38,3-.05-11.15-4.63-21.44-17.08-44.27-2.59-4.38-1.14-10.03,3.24-12.62.56-.33,1.15-.6,1.76-.8,1.49-.5,3.08-1,4.73-1.46,5.73-1.74,11.57-3.08,17.48-4,1.94-.26,4-.46,5.9-.63,7.09-.56,13.58,3.99,15.49,10.84Z"/>
    <path class="cls-11" d="M46.68,112.42l-17.65,3.8s14.28,6,25.73,15.14c3.12-15.72-8.08-18.94-8.08-18.94Z"/>
    <path class="cls-12" d="M24.82,96.45c2.8,5.28,7,15.16,4.21,19.75,0,0,15.93,4.6,24.43,11.91,1.14-11.82-6.78-15.69-6.78-15.69-6.72,0-8.14-4.86-8.36-9.4l-13.5-6.57Z"/>
    <path class="cls-11" d="M39.79,117.71c-3.64-.08-7.26-.5-10.82-1.27-.13-.03-.22-.16-.19-.3,0,0,0,0,0,0,.03-.13.17-.22.3-.19.1,0,9.53,2.11,15,.86,1.75-.4,2.78-1,3-1.91.12-.88-.17-1.77-.79-2.41-.1-.1-.1-.25,0-.35,0,0,0,0,0,0,.1-.1.25-.1.35,0,.75.77,1.08,1.84.91,2.9-.32,1-1.47,1.81-3.41,2.25-1.43.3-2.89.44-4.35.43Z"/>
    <path class="cls-8" d="M46.9,117.85h0c-.43.3-1.02.22-1.35-.19l-.55-.72c-.3-.43-.22-1.02.19-1.35h0c.43-.3,1.02-.22,1.35.19l.55.73c.29.43.21,1.01-.19,1.34Z"/>
    <path class="cls-2" d="M30.32,99.13l8,3.89c.04,1.07.17,2.13.4,3.17-2.5.2-6.59-1.63-7.6-4-.45-.96-.72-2-.8-3.06Z"/>
    <path class="cls-12" d="M16.76,88.44c4.12,8.54,5.67,12.23,12,15.16,9.47,4.41,19.15-1.88,17.69-11.32-1.31-8.5-7.81-21-17.88-21.51-6.68-.57-12.56,4.39-13.12,11.07-.19,2.28.26,4.57,1.31,6.6Z"/>
    <path class="cls-10" d="M20.38,76.04c4.47,6.35,4.24,16.77-1,18.18-8-1.24-9.74-3.31-9.74-3.31,0,0,2.56-19.59,10.74-14.87Z"/>
    <path class="cls-10" d="M14.08,78.65c11.82,1.51,21.23-3.43,23-6.2-10.7-7.23-21.83-1.08-23,6.2Z"/>
    <path class="cls-9" d="M38.76,83.51c1.37,1.44,2.92,2.71,4.61,3.76-.58,1.23-2.4,1.4-2.4,1.4l-2.21-5.16Z"/>
    <path class="cls-10" d="M38.19,92.61c.43-.07.86-.18,1.27-.32.11-.04.17-.16.13-.27,0,0,0-.02,0-.02-.05-.12-.19-.18-.31-.14-1.89.67-3.99.44-5.69-.62-.09-.09-.23-.09-.32,0-.07.11-.04.25.06.32,1.44.94,3.17,1.31,4.87,1.05Z"/>
    <path class="cls-12" d="M17.29,97.22c1.57.94,3.47,1.17,5.22.63,2.12-.74,1.5-3.32-.5-5-1.79-1.48-5.06-2.87-6.5-1.24s-.36,4.42,1.78,5.61Z"/>
    <path class="cls-11" d="M21.06,97.74c-1.61,0-2.92,1.31-2.92,2.92s1.31,2.92,2.92,2.92,2.92-1.31,2.92-2.92h0c0-1.61-1.29-2.91-2.9-2.92,0,0-.01,0-.02,0ZM21.06,102.89c-1.24,0-2.24-1-2.24-2.24,0-1.24,1-2.24,2.24-2.24,1.24,0,2.24,1,2.24,2.24,0,0,0,0,0,0,0,1.23-1,2.23-2.23,2.23,0,0,0,0-.01,0Z"/>
    <path class="cls-10" d="M27.57,82.84c.11-.06.18-.17.19-.29.14-1.14.84-2.13,1.87-2.64.22-.09.32-.34.23-.56,0,0,0-.02-.01-.03-.12-.23-.39-.33-.63-.23-1.32.61-2.22,1.86-2.4,3.3-.02.27.18.5.45.52.1,0,.21-.02.3-.07h0Z"/>
    <path class="cls-10" d="M41.77,77.54c.12,0,.23-.06.3-.16.15-.21.1-.49-.11-.64-1.17-.98-2.73-1.35-4.21-1-.22.07-.35.3-.28.53,0,.02.01.03.02.04.09.24.35.37.6.3,1.17-.27,2.4.02,3.33.79.09.1.22.15.35.14Z"/>
    <path class="cls-10" d="M41.63,80.92c.25.74.07,1.47-.42,1.64s-1.09-.31-1.35-1.05-.07-1.48.42-1.64,1.1.35,1.35,1.05Z"/>
    <path class="cls-10" d="M32.96,84.49c.26.74.07,1.47-.42,1.64s-1.09-.31-1.35-1-.07-1.48.42-1.64,1.09.25,1.35,1Z"/>
    <path class="cls-10" d="M31.19,83.87l.82-1.76s.47,1.68-.82,1.76Z"/>
    <path class="cls-10" d="M39.8,80.41l.82-1.76s.47,1.67-.82,1.76Z"/>
    <path class="cls-3" d="M29.38,132.37l-8.68,3.26c3.57,6.62,6.4,12.1,8.57,16.86-.53-6.7-.49-13.43.11-20.12Z"/>
    <rect class="cls-8" x="83.71" y="202.04" width="11.41" height="164.41"/>
    <polygon class="cls-2" points="83.72 202.05 95.13 202.05 95.13 229.7 83.72 226.76 83.72 202.05"/>
    <path class="cls-8" d="M150.43,222.52H48.65v-19.06c0-14.43,11.69-26.12,26.12-26.12h49.54c14.43,0,26.12,11.69,26.12,26.12v19.06h0Z"/>
    <path class="cls-12" d="M56.16,191.28l-1.69-2.41c-.64-.91-1.67-1.45-2.78-1.46h-5.18c-2.07-.02-4.02.97-5.23,2.64l-.75,1c2.53,4.2,8.35,6.86,8.35,6.86l1.58.95c1.32.85,3.08.46,3.92-.86,0-.01.02-.03.03-.04l1.91-3.09c.66-1.12.6-2.53-.16-3.59Z"/>
    <path class="cls-8" d="M32.58,129.9c-.26.55-.6,1.35-.89,2l-.89,2.22c-.58,1.49-1.13,3-1.63,4.51-1,3-1.82,6.05-2.47,9.14-.3,1.52-.55,3-.74,4.52-.16,1.44-.25,2.9-.26,4.35-.08,2.46.35,4.9,1.27,7.18l.38.8c.03.07.05.13.07.2.64,1.99,1.62,3.85,2.91,5.5,1.49,2,3.13,3.89,4.9,5.65,1.84,1.8,3.81,3.55,5.85,5.23,1,.84,2.08,1.65,3.14,2.44s2.18,1.59,3.17,2.24l-5.67,9c-1.36-.85-2.51-1.63-3.74-2.46s-2.39-1.68-3.57-2.55c-2.36-1.72-4.67-3.55-6.92-5.53-2.34-2.01-4.52-4.18-6.54-6.51-1.09-1.26-2.09-2.6-3-4-1.01-1.53-1.86-3.16-2.53-4.87l.45,1c-2.14-3.9-3.37-8.24-3.62-12.68-.25-3.89-.15-7.8.32-11.68.44-3.7,1.08-7.37,1.92-11,.4-1.79.85-3.58,1.34-5.36.24-.89.49-1.77.76-2.66s.53-1.73.9-2.79l15.09,6.11Z"/>
    <path class="cls-7" d="M32.58,129.9c-.26.55-.6,1.35-.89,2l-.89,2.22c-.58,1.49-1.13,3-1.63,4.51-1,3-1.82,6.05-2.47,9.14-.3,1.52-.55,3-.74,4.52-.16,1.44-.25,2.9-.26,4.35-.08,2.46.35,4.9,1.27,7.18l.38.8c.03.07.05.13.07.2.64,1.99,1.62,3.85,2.91,5.5,1.49,2,3.13,3.89,4.9,5.65,1.84,1.8,3.81,3.55,5.85,5.23,1,.84,2.08,1.65,3.14,2.44s2.18,1.59,3.17,2.24l-5.67,9c-1.36-.85-2.51-1.63-3.74-2.46s-2.39-1.68-3.57-2.55c-2.36-1.72-4.67-3.55-6.92-5.53-2.34-2.01-4.52-4.18-6.54-6.51-1.09-1.26-2.09-2.6-3-4-1.01-1.53-1.86-3.16-2.53-4.87l.45,1c-2.14-3.9-3.37-8.24-3.62-12.68-.25-3.89-.15-7.8.32-11.68.44-3.7,1.08-7.37,1.92-11,.4-1.79.85-3.58,1.34-5.36.24-.89.49-1.77.76-2.66s.53-1.73.9-2.79l15.09,6.11Z"/>
    <rect class="cls-6" x="48.65" y="204.28" width="49.54" height="12.59"/>
    <path class="cls-2" d="M98.19,222.52v-19.06c0-14.43,11.71-26.11,26.14-26.1,14.41,0,26.09,11.69,26.1,26.1v19.06"/>
    <rect class="cls-8" x="98.19" y="222.52" width="71.48" height="3.35"/>
    <rect class="cls-2" x="117.43" y="222.52" width="52.24" height="3.35"/>
    <rect class="cls-1" x="89.43" y="164.71" width="1.85" height="44.13"/>
    <path class="cls-8" d="M78.89,173.28h12.94v-6.34c0-.46-.38-.84-.84-.84h-12.1l2.12,3.59-2.12,3.59Z"/>
  </g>
  <g id="freepik--Line--inject-269">
    <path class="cls-8" d="M208.96,38.55c-.23,0-.43-.16-.48-.39-.07-.26.09-.53.35-.6,0,0,.01,0,.02,0,1.11-.25,2.2-.59,3.26-1,.26-.1.55.02.65.28.1.26-.02.55-.28.65h0c-1.1.44-2.24.8-3.4,1.07h-.12Z"/>
    <path class="cls-8" d="M171.38,211.3c-.27,0-.48-.21-.5-.48-.01-.28.2-.51.48-.52,0,0,0,0,0,0,2.31-.12,4.67-.33,7-.64.27-.03.52.16.56.43.04.27-.14.52-.41.56,0,0-.01,0-.02,0-2.36.32-4.75.53-7.09.64h-.02ZM185.38,209.45c-.28.03-.52-.17-.55-.45s.17-.52.45-.55c2.35-.51,4.64-1.11,6.8-1.79.26-.11.55.02.65.27.11.26-.02.55-.27.65-.03.01-.05.02-.08.03-2.19.69-4.5,1.3-6.89,1.82l-.1.02ZM198.83,205.13c-.19,0-.37-.11-.45-.29-.12-.25-.01-.55.23-.67,0,0,0,0,0,0,1.7-.76,3.33-1.64,4.89-2.65l1.19-.8c.23-.15.54-.09.69.14.16.22.1.53-.12.68,0,0,0,0-.01,0l-1.2.8c-1.59,1.04-3.27,1.95-5,2.73-.06.03-.13.05-.2.05h-.03ZM210.6,197.34c-.14,0-.28-.06-.38-.17-.18-.21-.16-.53.05-.71,1.77-1.53,3.41-3.2,4.91-5,.18-.21.5-.24.71-.06.21.17.24.48.07.69,0,0,0,0,0,.01-1.53,1.83-3.2,3.53-5,5.09-.08.09-.2.14-.32.15h-.03ZM219.49,186.44c-.08,0-.16-.02-.23-.06-.25-.12-.34-.42-.22-.67.33-.63.63-1.27.9-1.92.62-1.49,1.12-3.03,1.5-4.6.07-.28.34-.45.62-.38.28.07.45.34.38.62-.39,1.62-.91,3.21-1.55,4.75-.28.67-.59,1.33-.93,2-.09.16-.26.26-.44.26h-.03ZM222.96,172.82h0c-.28-.02-.49-.25-.47-.53,0,0,0,0,0-.01.09-1.36.14-2.8.14-4.39v-2.63c-.01-.28.2-.51.48-.52,0,0,0,0,.01,0,.27-.01.5.2.51.47,0,0,0,.01,0,.02v2.66c0,1.62-.05,3.08-.14,4.46-.02.26-.24.47-.5.47h-.03ZM222.77,158.67c-.26,0-.48-.21-.5-.47-.09-2-.18-4.22-.18-6.4v-.71c-.02-.25.17-.47.43-.49.02,0,.05,0,.07,0,.28,0,.5.22.5.5v.7c0,2.16.09,4.33.18,6.35.01.28-.2.51-.48.52,0,0,0,0,0,0h-.02ZM265.52,152.51c-.91,0-1.8,0-2.65-.06-.28-.01-.49-.24-.48-.52,0,0,0,0,0,0,.01-.28.24-.49.52-.48,0,0,0,0,0,0,.84,0,1.72.06,2.61.06,1.47,0,2.93-.07,4.39-.22.28-.03.52.17.55.45s-.17.52-.45.55c-1.49.15-2.98.23-4.47.22h-.03ZM255.83,152h0c-2.34-.18-4.72-.39-7.06-.63-.27-.03-.48-.27-.45-.55,0,0,0,0,0,0,.03-.27.27-.48.55-.45,0,0,0,0,0,0,2.33.24,4.7.46,7,.64.28,0,.5.22.5.5s-.22.5-.5.5h-.04ZM276.83,150.57c-.2,0-.37-.11-.46-.29-.11-.25,0-.55.25-.66,2.1-.89,3.87-2.4,5.09-4.32.12-.25.42-.35.67-.22.25.12.35.42.22.67-.01.03-.03.05-.04.07-1.32,2.1-3.24,3.74-5.52,4.71-.07.03-.14.04-.21.04ZM241.78,150.57h-.06c-2.33-.3-4.7-.64-7-1-.27-.04-.46-.3-.42-.57,0,0,0,0,0,0,.05-.27.3-.46.57-.42,2.32.36,4.67.7,7,1,.28.02.49.25.47.53s-.25.49-.53.47h-.03ZM227.78,148.4h-.09c-2.31-.42-4.65-.88-6.95-1.36-.28-.06-.46-.32-.4-.6s.32-.46.6-.4c2.3.48,4.63.94,6.93,1.36.27.05.46.3.41.58,0,0,0,0,0,0-.05.23-.25.4-.49.4v.02ZM213.93,145.5h-.12c-2.28-.54-4.6-1.12-6.87-1.72-.28-.07-.44-.35-.38-.62s.35-.44.62-.38c2.27.6,4.57,1.18,6.85,1.71.27.07.44.34.38.61-.05.22-.25.38-.48.38v.02ZM223.11,144.56h-.08c-.27-.05-.46-.3-.42-.57.35-2.38.94-4.71,1.77-6.97.09-.26.38-.39.64-.3.26.09.39.38.3.64-.8,2.19-1.37,4.45-1.7,6.76-.04.24-.25.42-.5.42v.02ZM200.24,141.89s-.09,0-.14,0c-2.25-.65-4.54-1.35-6.78-2.07-.26-.08-.4-.35-.33-.61,0,0,0-.01,0-.02.09-.26.37-.41.63-.32,2.23.71,4.5,1.41,6.75,2.06.27.08.42.35.34.62-.07.2-.26.32-.47.32v.02ZM283.55,139.32c-.24,0-.44-.18-.49-.41-.54-2.2-1.78-4.17-3.54-5.61-.19-.19-.2-.5,0-.69,0,0,0,0,0,0,.19-.2.51-.2.71,0,0,0,0,0,0,0,1.92,1.58,3.27,3.74,3.85,6.16.06.27-.12.53-.39.59,0,0,0,0,0,0l-.14-.03ZM186.77,137.57c-.06.01-.11.01-.17,0-2.28-.81-4.51-1.65-6.65-2.49-.25-.11-.38-.39-.28-.65.1-.26.39-.38.65-.28,0,0,0,0,0,0,2.12.84,4.35,1.67,6.61,2.48.26.09.4.37.31.63-.08.18-.26.29-.46.29v.02ZM173.61,132.34c-.07.01-.13.01-.2,0-2.2-1-4.36-2-6.41-3.05-.25-.11-.38-.4-.27-.65s.4-.38.65-.27c.02,0,.04.02.07.03,2,1,4.18,2,6.37,3,.28.06.45.33.4.6-.06.28-.33.45-.61.4v-.06ZM228.13,131.47c-.11,0-.21-.03-.3-.09-.22-.17-.27-.48-.1-.7,1.31-1.79,2.91-3.35,4.75-4.6l.52-.33c.23-.15.54-.07.69.16s.07.54-.16.69h0l-.49.31c-1.74,1.18-3.27,2.66-4.51,4.36-.1.11-.24.18-.39.18v.02ZM274,129.47c-.08,0-.17-.02-.24-.06-.84-.45-1.66-.87-2.44-1.26-1.27-.62-2.58-1.2-3.9-1.72-.26-.08-.41-.36-.33-.62s.36-.41.62-.33c.02,0,.05.02.07.03,1.35.52,2.69,1.12,4,1.76.78.39,1.62.81,2.47,1.27.24.14.33.44.2.68-.09.15-.26.25-.44.24v.02ZM161,125.92c-.09,0-.18-.02-.25-.07-2.09-1.21-4.12-2.47-6-3.76-.22-.17-.25-.49-.08-.7.15-.19.41-.24.63-.13,1.9,1.27,3.91,2.53,6,3.73.24.14.32.45.17.69-.09.15-.25.24-.42.24h-.05ZM260.85,124.35h-.12c-2.27-.54-4.58-.92-6.91-1.14-.27-.03-.47-.27-.45-.54.03-.27.28-.47.55-.45,2.36.22,4.7.61,7,1.16.28.03.48.28.45.55s-.28.48-.55.45l.04-.03ZM239.8,124.03c-.23,0-.44-.16-.49-.39-.06-.27.1-.54.37-.6,1.76-.42,3.54-.7,5.34-.85.58,0,1.17-.09,1.75-.12.26-.03.5.16.53.43,0,.01,0,.03,0,.04.01.27-.2.5-.47.52-.58,0-1.15.08-1.72.13-1.75.14-3.48.42-5.19.82l-.12.02ZM149.27,118.03c-.11,0-.22-.03-.31-.1-1.9-1.49-3.72-3.05-5.41-4.62-.2-.19-.2-.51,0-.71,0,0,0,0,0,0,.2-.19.51-.19.71,0,1.67,1.56,3.47,3.1,5.35,4.57.21.17.25.48.08.7-.11.11-.26.15-.41.13v.03ZM138.95,108.38c-.14,0-.28-.06-.38-.17-1.57-1.79-3.04-3.66-4.39-5.62-.16-.23-.1-.54.12-.7.23-.15.54-.09.7.13,1.35,1.92,2.81,3.75,4.38,5.5.19.19.19.51,0,.7-.11.11-.27.15-.42.13v.03ZM130.95,96.75c-.19,0-.36-.11-.44-.28-1.1-2.11-2.04-4.3-2.83-6.55-.09-.26.05-.55.31-.64.26-.09.54.05.63.31.77,2.21,1.7,4.36,2.78,6.43.12.25.03.55-.22.67-.07.03-.15.04-.23.03v.03ZM126.38,83.39c-.25,0-.45-.18-.49-.42-.1-.53-.18-1.06-.26-1.6-.24-1.76-.37-3.54-.37-5.32v-.21c0-.28.22-.5.5-.5s.5.22.5.5v.2c0,1.73.12,3.46.36,5.18.08.53.16,1.05.25,1.57.05.27-.13.53-.4.58l-.09.02ZM126.43,69.31h-.09c-.27-.05-.45-.31-.4-.58.43-2.35,1.07-4.66,1.89-6.9.1-.26.39-.39.65-.3.26.1.38.38.29.64-.81,2.19-1.43,4.44-1.85,6.74-.05.26-.28.43-.54.4h.05ZM131.31,56.1c-.09,0-.17-.03-.25-.07-.24-.14-.32-.45-.18-.69,1.2-2.07,2.59-4.02,4.15-5.83.21-.18.52-.17.71.04.15.17.17.42.04.61-1.5,1.78-2.84,3.68-4,5.69-.1.18-.3.28-.5.25h.03ZM140.52,45.45c-.28,0-.5-.23-.5-.5,0-.15.07-.29.19-.39,1.89-1.47,3.92-2.75,6.05-3.83.25-.12.55-.02.68.22.12.25.02.55-.23.68h0c-2.08,1.05-4.05,2.3-5.89,3.72-.09.07-.21.11-.33.1h.03ZM201.94,39.22h0c-2.38-.05-4.76-.26-7.11-.63-.28-.04-.47-.29-.43-.57s.29-.47.57-.43c2.32.36,4.66.57,7,.62.28,0,.5.22.5.5s-.22.5-.5.5h-.03ZM153,38.96c-.28.04-.54-.14-.58-.42-.04-.28.14-.54.42-.58,2.26-.73,4.57-1.34,6.9-1.8.27-.05.53.12.59.39,0,0,0,0,0,0,.06.26-.1.52-.36.57,0,0-.02,0-.03,0-2.3.46-4.56,1.05-6.79,1.77l-.15.05ZM187.92,37.39h-.09c-2.15-.4-4.58-.85-7-1.19-.27-.04-.46-.29-.42-.56.03-.27.27-.46.54-.43,0,0,.01,0,.02,0,2.4.34,4.84.8,7,1.2.27.05.45.31.4.58-.04.23-.22.41-.45.43v-.03ZM166.84,36.1c-.28.02-.51-.19-.53-.47s.19-.51.47-.53c1.27-.14,2.63-.27,4-.38.88-.07,1.81-.11,2.76-.11h.33c.28,0,.5.23.49.51h0c-.02.27-.23.48-.5.49h-.32c-.92,0-1.82,0-2.69.1-1.38.11-2.72.24-4,.39h0Z"/>
    <path class="cls-8" d="M164.2,211.32h0c-1.19-.05-2.37-.14-3.51-.25-.27-.02-.47-.26-.45-.53,0,0,0,0,0-.01.01-.26.24-.47.51-.45.01,0,.02,0,.03,0,1.13.11,2.29.19,3.47.24.28,0,.5.22.5.5s-.22.5-.5.5h-.05Z"/>
    <g class="cls-13">
      <path class="cls-11" d="M208.96,38.55c-.23,0-.43-.16-.48-.39-.07-.26.09-.53.35-.6,0,0,.01,0,.02,0,1.11-.25,2.2-.59,3.26-1,.26-.1.55.02.65.28.1.26-.02.55-.28.65h0c-1.1.44-2.24.8-3.4,1.07h-.12Z"/>
      <path class="cls-11" d="M171.38,211.3c-.27,0-.48-.21-.5-.48-.01-.28.2-.51.48-.52,0,0,0,0,0,0,2.31-.12,4.67-.33,7-.64.27-.03.52.16.56.43.04.27-.14.52-.41.56,0,0-.01,0-.02,0-2.36.32-4.75.53-7.09.64h-.02ZM185.38,209.45c-.28.03-.52-.17-.55-.45s.17-.52.45-.55c2.35-.51,4.64-1.11,6.8-1.79.26-.11.55.02.65.27.11.26-.02.55-.27.65-.03.01-.05.02-.08.03-2.19.69-4.5,1.3-6.89,1.82l-.1.02ZM198.83,205.13c-.19,0-.37-.11-.45-.29-.12-.25-.01-.55.23-.67,0,0,0,0,0,0,1.7-.76,3.33-1.64,4.89-2.65l1.19-.8c.23-.15.54-.09.69.14.16.22.1.53-.12.68,0,0,0,0-.01,0l-1.2.8c-1.59,1.04-3.27,1.95-5,2.73-.06.03-.13.05-.2.05h-.03ZM210.6,197.34c-.14,0-.28-.06-.38-.17-.18-.21-.16-.53.05-.71,1.77-1.53,3.41-3.2,4.91-5,.18-.21.5-.24.71-.06.21.17.24.48.07.69,0,0,0,0,0,.01-1.53,1.83-3.2,3.53-5,5.09-.08.09-.2.14-.32.15h-.03ZM219.49,186.44c-.08,0-.16-.02-.23-.06-.25-.12-.34-.42-.22-.67.33-.63.63-1.27.9-1.92.62-1.49,1.12-3.03,1.5-4.6.07-.28.34-.45.62-.38.28.07.45.34.38.62-.39,1.62-.91,3.21-1.55,4.75-.28.67-.59,1.33-.93,2-.09.16-.26.26-.44.26h-.03ZM222.96,172.82h0c-.28-.02-.49-.25-.47-.53,0,0,0,0,0-.01.09-1.36.14-2.8.14-4.39v-2.63c-.01-.28.2-.51.48-.52,0,0,0,0,.01,0,.27-.01.5.2.51.47,0,0,0,.01,0,.02v2.66c0,1.62-.05,3.08-.14,4.46-.02.26-.24.47-.5.47h-.03ZM222.77,158.67c-.26,0-.48-.21-.5-.47-.09-2-.18-4.22-.18-6.4v-.71c-.02-.25.17-.47.43-.49.02,0,.05,0,.07,0,.28,0,.5.22.5.5v.7c0,2.16.09,4.33.18,6.35.01.28-.2.51-.48.52,0,0,0,0,0,0h-.02ZM265.52,152.51c-.91,0-1.8,0-2.65-.06-.28-.01-.49-.24-.48-.52,0,0,0,0,0,0,.01-.28.24-.49.52-.48,0,0,0,0,0,0,.84,0,1.72.06,2.61.06,1.47,0,2.93-.07,4.39-.22.28-.03.52.17.55.45s-.17.52-.45.55c-1.49.15-2.98.23-4.47.22h-.03ZM255.83,152h0c-2.34-.18-4.72-.39-7.06-.63-.27-.03-.48-.27-.45-.55,0,0,0,0,0,0,.03-.27.27-.48.55-.45,0,0,0,0,0,0,2.33.24,4.7.46,7,.64.28,0,.5.22.5.5s-.22.5-.5.5h-.04ZM276.83,150.57c-.2,0-.37-.11-.46-.29-.11-.25,0-.55.25-.66,2.1-.89,3.87-2.4,5.09-4.32.12-.25.42-.35.67-.22.25.12.35.42.22.67-.01.03-.03.05-.04.07-1.32,2.1-3.24,3.74-5.52,4.71-.07.03-.14.04-.21.04ZM241.78,150.57h-.06c-2.33-.3-4.7-.64-7-1-.27-.04-.46-.3-.42-.57,0,0,0,0,0,0,.05-.27.3-.46.57-.42,2.32.36,4.67.7,7,1,.28.02.49.25.47.53s-.25.49-.53.47h-.03ZM227.78,148.4h-.09c-2.31-.42-4.65-.88-6.95-1.36-.28-.06-.46-.32-.4-.6s.32-.46.6-.4c2.3.48,4.63.94,6.93,1.36.27.05.46.3.41.58,0,0,0,0,0,0-.05.23-.25.4-.49.4v.02ZM213.93,145.5h-.12c-2.28-.54-4.6-1.12-6.87-1.72-.28-.07-.44-.35-.38-.62s.35-.44.62-.38c2.27.6,4.57,1.18,6.85,1.71.27.07.44.34.38.61-.05.22-.25.38-.48.38v.02ZM223.11,144.56h-.08c-.27-.05-.46-.3-.42-.57.35-2.38.94-4.71,1.77-6.97.09-.26.38-.39.64-.3.26.09.39.38.3.64-.8,2.19-1.37,4.45-1.7,6.76-.04.24-.25.42-.5.42v.02ZM200.24,141.89s-.09,0-.14,0c-2.25-.65-4.54-1.35-6.78-2.07-.26-.08-.4-.35-.33-.61,0,0,0-.01,0-.02.09-.26.37-.41.63-.32,2.23.71,4.5,1.41,6.75,2.06.27.08.42.35.34.62-.07.2-.26.32-.47.32v.02ZM283.55,139.32c-.24,0-.44-.18-.49-.41-.54-2.2-1.78-4.17-3.54-5.61-.19-.19-.2-.5,0-.69,0,0,0,0,0,0,.19-.2.51-.2.71,0,0,0,0,0,0,0,1.92,1.58,3.27,3.74,3.85,6.16.06.27-.12.53-.39.59,0,0,0,0,0,0l-.14-.03ZM186.77,137.57c-.06.01-.11.01-.17,0-2.28-.81-4.51-1.65-6.65-2.49-.25-.11-.38-.39-.28-.65.1-.26.39-.38.65-.28,0,0,0,0,0,0,2.12.84,4.35,1.67,6.61,2.48.26.09.4.37.31.63-.08.18-.26.29-.46.29v.02ZM173.61,132.34c-.07.01-.13.01-.2,0-2.2-1-4.36-2-6.41-3.05-.25-.11-.38-.4-.27-.65s.4-.38.65-.27c.02,0,.04.02.07.03,2,1,4.18,2,6.37,3,.28.06.45.33.4.6-.06.28-.33.45-.61.4v-.06ZM228.13,131.47c-.11,0-.21-.03-.3-.09-.22-.17-.27-.48-.1-.7,1.31-1.79,2.91-3.35,4.75-4.6l.52-.33c.23-.15.54-.07.69.16s.07.54-.16.69h0l-.49.31c-1.74,1.18-3.27,2.66-4.51,4.36-.1.11-.24.18-.39.18v.02ZM274,129.47c-.08,0-.17-.02-.24-.06-.84-.45-1.66-.87-2.44-1.26-1.27-.62-2.58-1.2-3.9-1.72-.26-.08-.41-.36-.33-.62s.36-.41.62-.33c.02,0,.05.02.07.03,1.35.52,2.69,1.12,4,1.76.78.39,1.62.81,2.47,1.27.24.14.33.44.2.68-.09.15-.26.25-.44.24v.02ZM161,125.92c-.09,0-.18-.02-.25-.07-2.09-1.21-4.12-2.47-6-3.76-.22-.17-.25-.49-.08-.7.15-.19.41-.24.63-.13,1.9,1.27,3.91,2.53,6,3.73.24.14.32.45.17.69-.09.15-.25.24-.42.24h-.05ZM260.85,124.35h-.12c-2.27-.54-4.58-.92-6.91-1.14-.27-.03-.47-.27-.45-.54.03-.27.28-.47.55-.45,2.36.22,4.7.61,7,1.16.28.03.48.28.45.55s-.28.48-.55.45l.04-.03ZM239.8,124.03c-.23,0-.44-.16-.49-.39-.06-.27.1-.54.37-.6,1.76-.42,3.54-.7,5.34-.85.58,0,1.17-.09,1.75-.12.26-.03.5.16.53.43,0,.01,0,.03,0,.04.01.27-.2.5-.47.52-.58,0-1.15.08-1.72.13-1.75.14-3.48.42-5.19.82l-.12.02ZM149.27,118.03c-.11,0-.22-.03-.31-.1-1.9-1.49-3.72-3.05-5.41-4.62-.2-.19-.2-.51,0-.71,0,0,0,0,0,0,.2-.19.51-.19.71,0,1.67,1.56,3.47,3.1,5.35,4.57.21.17.25.48.08.7-.11.11-.26.15-.41.13v.03ZM138.95,108.38c-.14,0-.28-.06-.38-.17-1.57-1.79-3.04-3.66-4.39-5.62-.16-.23-.1-.54.12-.7.23-.15.54-.09.7.13,1.35,1.92,2.81,3.75,4.38,5.5.19.19.19.51,0,.7-.11.11-.27.15-.42.13v.03ZM130.95,96.75c-.19,0-.36-.11-.44-.28-1.1-2.11-2.04-4.3-2.83-6.55-.09-.26.05-.55.31-.64.26-.09.54.05.63.31.77,2.21,1.7,4.36,2.78,6.43.12.25.03.55-.22.67-.07.03-.15.04-.23.03v.03ZM126.38,83.39c-.25,0-.45-.18-.49-.42-.1-.53-.18-1.06-.26-1.6-.24-1.76-.37-3.54-.37-5.32v-.21c0-.28.22-.5.5-.5s.5.22.5.5v.2c0,1.73.12,3.46.36,5.18.08.53.16,1.05.25,1.57.05.27-.13.53-.4.58l-.09.02ZM126.43,69.31h-.09c-.27-.05-.45-.31-.4-.58.43-2.35,1.07-4.66,1.89-6.9.1-.26.39-.39.65-.3.26.1.38.38.29.64-.81,2.19-1.43,4.44-1.85,6.74-.05.26-.28.43-.54.4h.05ZM131.31,56.1c-.09,0-.17-.03-.25-.07-.24-.14-.32-.45-.18-.69,1.2-2.07,2.59-4.02,4.15-5.83.21-.18.52-.17.71.04.15.17.17.42.04.61-1.5,1.78-2.84,3.68-4,5.69-.1.18-.3.28-.5.25h.03ZM140.52,45.45c-.28,0-.5-.23-.5-.5,0-.15.07-.29.19-.39,1.89-1.47,3.92-2.75,6.05-3.83.25-.12.55-.02.68.22.12.25.02.55-.23.68h0c-2.08,1.05-4.05,2.3-5.89,3.72-.09.07-.21.11-.33.1h.03ZM201.94,39.22h0c-2.38-.05-4.76-.26-7.11-.63-.28-.04-.47-.29-.43-.57s.29-.47.57-.43c2.32.36,4.66.57,7,.62.28,0,.5.22.5.5s-.22.5-.5.5h-.03ZM153,38.96c-.28.04-.54-.14-.58-.42-.04-.28.14-.54.42-.58,2.26-.73,4.57-1.34,6.9-1.8.27-.05.53.12.59.39,0,0,0,0,0,0,.06.26-.1.52-.36.57,0,0-.02,0-.03,0-2.3.46-4.56,1.05-6.79,1.77l-.15.05ZM187.92,37.39h-.09c-2.15-.4-4.58-.85-7-1.19-.27-.04-.46-.29-.42-.56.03-.27.27-.46.54-.43,0,0,.01,0,.02,0,2.4.34,4.84.8,7,1.2.27.05.45.31.4.58-.04.23-.22.41-.45.43v-.03ZM166.84,36.1c-.28.02-.51-.19-.53-.47s.19-.51.47-.53c1.27-.14,2.63-.27,4-.38.88-.07,1.81-.11,2.76-.11h.33c.28,0,.5.23.49.51h0c-.02.27-.23.48-.5.49h-.32c-.92,0-1.82,0-2.69.1-1.38.11-2.72.24-4,.39h0Z"/>
      <path class="cls-11" d="M164.2,211.32h0c-1.19-.05-2.37-.14-3.51-.25-.27-.02-.47-.26-.45-.53,0,0,0,0,0-.01.01-.26.24-.47.51-.45.01,0,.02,0,.03,0,1.13.11,2.29.19,3.47.24.28,0,.5.22.5.5s-.22.5-.5.5h-.05Z"/>
    </g>
  </g>
  <g id="freepik--Envelope--inject-269">
    <rect class="cls-8" x="227.89" y="-8.95" width="22.44" height="41.78" rx="3.22" ry="3.22" transform="translate(217.38 250.36) rotate(-87.65)"/>
    <rect class="cls-5" x="227.89" y="-8.95" width="22.44" height="41.78" rx="3.22" ry="3.22" transform="translate(217.38 250.36) rotate(-87.65)"/>
    <path class="cls-4" d="M238.95,16.22c-.1,0-.2-.03-.29-.09l-18.28-12.58c-.23-.15-.29-.47-.13-.69,0,0,0,0,0,0,.16-.22.46-.28.69-.13l18,12.42,19-10.9c.24-.13.54-.05.68.19.14.24.06.54-.18.68l-19.22,11c-.08.06-.17.1-.27.11Z"/>
    <path class="cls-4" d="M257.51,21.11c-.1,0-.2-.03-.28-.09l-10.46-7.27c-.23-.15-.29-.47-.13-.69,0,0,0,0,0,0,.16-.22.47-.28.7-.12l10.46,7.29c.22.15.28.46.13.68,0,0,0,0,0,0-.1.13-.25.2-.41.2Z"/>
    <path class="cls-4" d="M220.05,19.57c-.28.01-.51-.2-.52-.48,0-.19.09-.37.26-.46l11-6.38c.25-.11.55,0,.66.25.1.22.03.47-.16.61l-11,6.39c-.07.04-.16.07-.24.07Z"/>
  </g>
  <g id="freepik--paper-plane--inject-269">
    <polygon class="cls-8" points="292.6 10.02 222.23 26.07 213.21 31.64 292.6 10.02"/>
    <polyline class="cls-2" points="222.23 26.07 213.21 31.64 292.6 10.02"/>
    <polygon class="cls-8" points="292.6 10.02 222.23 26.07 228.85 30.94 292.6 10.02"/>
    <polygon class="cls-8" points="292.6 10.02 232.27 22.36 228.85 30.94 292.6 10.02"/>
    <polygon class="cls-2" points="292.6 10.02 232.27 22.36 228.85 30.94 292.6 10.02"/>
    <polygon class="cls-8" points="292.6 10.02 232.27 22.36 251.27 29.25 292.6 10.02"/>
  </g>
</svg>